<?xml version="1.0" encoding="iso-8859-1"?>
<!-- Generator: Adobe Illustrator 19.0.0, SVG Export Plug-In . SVG Version: 6.00 Build 0)  -->
<svg version="1.1" id="Layer_1" xmlns="http://www.w3.org/2000/svg" xmlns:xlink="http://www.w3.org/1999/xlink" x="0px" y="0px"
	 viewBox="0 0 512 512" style="enable-background:new 0 0 512 512;" xml:space="preserve">
<circle style="fill:#C2D5D8;" cx="256" cy="256" r="256"/>
<path style="fill:#B7C9CC;" d="M499.36,335.472c-0.152-0.364-0.244-0.748-0.428-1.084c-0.232-0.868-0.564-1.692-1-2.46
	c-0.228-0.86-0.556-1.68-0.984-2.444c-0.228-0.868-0.556-1.684-0.992-2.456c-0.228-0.864-0.556-1.684-0.992-2.456
	c-0.228-0.864-0.564-1.688-0.996-2.452c-0.232-0.868-0.56-1.68-0.988-2.448c-0.228-0.864-0.556-1.684-0.992-2.456
	c-0.236-0.868-0.556-1.696-1.004-2.468c-0.224-0.86-0.552-1.68-0.984-2.436c-0.224-0.868-0.56-1.688-0.996-2.46
	c-0.228-0.86-0.556-1.68-0.988-2.444c-0.224-0.868-0.552-1.688-0.992-2.452c-0.224-0.868-0.552-1.688-0.992-2.456
	c-0.224-0.864-0.556-1.688-0.996-2.46c-0.224-0.86-0.552-1.68-0.988-2.448c-0.224-0.86-0.552-1.68-0.988-2.448
	c-0.228-0.872-0.556-1.692-0.992-2.456c-0.228-0.864-0.56-1.688-1-2.46c-0.224-0.86-0.552-1.68-0.984-2.444
	c-0.228-0.868-0.556-1.688-0.992-2.452c-0.228-0.868-0.556-1.684-0.992-2.456c-0.228-0.864-0.556-1.684-0.992-2.456
	c-0.228-0.864-0.56-1.688-0.992-2.46c-0.232-0.86-0.556-1.68-0.992-2.44c-0.228-0.864-0.556-1.684-0.992-2.456
	c-0.228-0.864-0.556-1.684-0.988-2.452c-0.232-0.868-0.56-1.688-0.996-2.46c-0.228-0.86-0.556-1.68-0.988-2.444
	c-0.224-0.864-0.552-1.684-0.992-2.452c-0.224-0.868-0.552-1.688-0.992-2.46c-0.224-0.86-0.56-1.688-0.996-2.452
	c-0.228-0.864-0.556-1.684-0.988-2.448c-0.232-0.868-0.56-1.696-1.004-2.472c-0.22-0.856-0.548-1.676-0.984-2.44
	c-0.224-0.864-0.552-1.684-0.992-2.452c-0.224-0.868-0.556-1.688-0.996-2.46c-0.224-0.86-0.552-1.68-0.988-2.448
	c-0.224-0.864-0.552-1.684-0.992-2.456c-0.224-0.864-0.552-1.684-0.992-2.452c-0.224-0.864-0.556-1.688-0.992-2.46
	c-0.228-0.86-0.556-1.68-0.992-2.448c-0.224-0.864-0.552-1.684-0.984-2.452c-0.232-0.868-0.56-1.688-0.992-2.456
	c-0.232-0.864-0.564-1.688-1-2.46c-0.228-0.86-0.556-1.68-0.984-2.448c-0.228-0.864-0.556-1.684-0.992-2.452
	c-0.228-0.868-0.556-1.684-0.992-2.456c-0.228-0.864-0.556-1.684-0.992-2.456c-0.228-0.864-0.556-1.688-0.996-2.46
	c-0.232-0.86-0.552-1.68-0.988-2.444c-0.228-0.864-0.556-1.684-0.992-2.456c-0.228-0.864-0.556-1.684-0.992-2.456
	c-0.228-0.864-0.556-1.688-0.996-2.46c-0.224-0.86-0.552-1.68-0.988-2.444c-0.224-0.864-0.552-1.684-0.992-2.456
	c-0.224-0.864-0.552-1.684-0.992-2.456c-0.224-0.864-0.556-1.688-0.996-2.456c-0.224-0.872-0.556-1.696-1-2.464
	c-0.22-0.856-0.548-1.676-0.98-2.44c-0.228-0.864-0.556-1.684-0.992-2.456c-0.228-0.864-0.556-1.684-0.992-2.452
	c-0.228-0.868-0.56-1.692-0.992-2.46c-0.232-0.86-0.56-1.68-0.992-2.448c-0.228-0.864-0.556-1.684-0.992-2.456
	c-0.228-0.864-0.556-1.684-0.992-2.452c-0.228-0.868-0.56-1.692-0.992-2.46c-0.228-0.86-0.556-1.68-0.992-2.448
	c-0.228-0.864-0.556-1.684-0.988-2.456c-0.232-0.864-0.552-1.684-0.992-2.452c-0.224-0.864-0.56-1.688-0.996-2.46
	c-0.228-0.86-0.556-1.68-0.988-2.448c-0.224-0.864-0.552-1.684-0.992-2.452c-0.224-0.868-0.552-1.688-0.992-2.456
	c-0.224-0.864-0.552-1.684-0.992-2.456c-0.224-0.864-0.56-1.688-0.996-2.46c-0.228-0.86-0.556-1.68-0.988-2.444
	c-0.224-0.868-0.552-1.688-0.992-2.456c-0.224-0.864-0.552-1.684-0.992-2.456c-0.224-0.864-0.556-1.688-0.996-2.46
	c-0.224-0.86-0.552-1.68-0.984-2.444c-0.228-0.868-0.556-1.688-0.992-2.456c-0.228-0.864-0.556-1.684-0.992-2.456
	c-0.232-0.872-0.564-1.7-1.008-2.48c-0.224-0.852-0.548-1.664-0.976-2.424c-0.232-0.868-0.56-1.684-0.992-2.456
	c-0.232-0.864-0.56-1.684-0.992-2.456c-0.232-0.864-0.564-1.688-1-2.46c-0.228-0.86-0.556-1.68-0.984-2.444
	c-0.228-0.864-0.556-1.684-0.992-2.456c-0.228-0.864-0.556-1.684-0.992-2.456c-0.228-0.864-0.556-1.684-0.992-2.452
	c-0.228-0.868-0.556-1.692-0.996-2.46c-0.224-0.86-0.552-1.68-0.988-2.448c-0.228-0.864-0.556-1.684-0.992-2.456
	c-0.428-1.684-1.252-3.252-2.5-4.516c-1.876-1.92-4.452-3-7.14-3c-1.484,0-3.036,0.076-4.616,0.176
	c-1.384,0.084-2.796,0.22-4.244,0.364c-0.008,0.004-0.016,0.004-0.028,0.004c-30.14,3.152-73.896,21.216-102.52,47.276
	c-1.82-1.128-3.736-2.076-5.656-2.924c-0.328-0.144-0.656-0.296-0.988-0.44c-0.584-0.244-1.168-0.468-1.752-0.692
	c-0.888-0.34-1.78-0.66-2.704-0.96c-0.072-0.02-0.132-0.04-0.196-0.064c-4.408-1.42-9.112-2.344-14.084-2.62
	C258.084,136.04,257.004,136,256,136c-2.036,0-4.02,0.14-5.976,0.348c-0.008,0-0.012,0-0.02,0
	c-8.44,0.896-16.116,3.592-22.604,7.472c-6.132-5.584-12.976-10.796-20.228-15.584C177.184,108.104,141.976,96,116,96
	c-0.556,0-1.1,0.064-1.64,0.164c-0.5,0.084-0.98,0.22-1.46,0.376l-0.008,0.004c-1.508,0.496-2.904,1.3-4.032,2.464
	c-1.884,1.916-2.908,4.512-2.86,7.188c0.476,23.632,11.436,52.188,21.092,77.408c3.236,8.416,6.348,16.544,8.908,24.044V264v12
	c0,1.848,0.092,3.68,0.24,5.504c0.048,0.56,0.104,1.104,0.16,1.66c0.132,1.304,0.3,2.6,0.5,3.9c0.088,0.584,0.18,1.156,0.28,1.74
	c0.268,1.488,0.584,2.956,0.94,4.416c0.076,0.296,0.124,0.596,0.204,0.9c0.436,1.696,0.94,3.36,1.492,5.008
	c0.2,0.592,0.416,1.196,0.636,1.78c0.392,1.084,0.796,2.148,1.236,3.212c0.152,0.376,0.316,0.744,0.476,1.108
	c0.172,0.444,0.336,0.908,0.516,1.344c0.152,0.376,0.316,0.748,0.476,1.108c0.172,0.448,0.336,0.908,0.516,1.344
	c0.16,0.392,0.328,0.768,0.492,1.152c0.168,0.432,0.324,0.872,0.5,1.3c0.152,0.376,0.316,0.744,0.476,1.108
	c0.172,0.444,0.336,0.908,0.516,1.344c0.152,0.38,0.316,0.748,0.476,1.108c0.172,0.448,0.336,0.908,0.516,1.344
	c0.152,0.384,0.316,0.752,0.476,1.112c0.172,0.448,0.336,0.904,0.516,1.344c0.152,0.376,0.316,0.748,0.476,1.112
	c0.172,0.444,0.336,0.904,0.516,1.344c0.16,0.388,0.328,0.764,0.492,1.148c0.168,0.428,0.324,0.876,0.5,1.304
	c0.152,0.376,0.316,0.744,0.476,1.104c0.172,0.448,0.336,0.912,0.516,1.344c0.152,0.38,0.316,0.748,0.476,1.112
	c0.172,0.444,0.336,0.904,0.516,1.344c0.152,0.376,0.316,0.744,0.476,1.108c0.172,0.444,0.336,0.908,0.516,1.344
	c0.172,0.416,0.352,0.836,0.532,1.252c0.156,0.408,0.3,0.808,0.464,1.212c0.152,0.376,0.316,0.748,0.476,1.108
	c0.172,0.448,0.332,0.908,0.516,1.344c0.152,0.384,0.316,0.752,0.476,1.112c0.172,0.448,0.332,0.904,0.516,1.344
	c0.152,0.376,0.316,0.748,0.476,1.112c0.172,0.44,0.332,0.904,0.516,1.344c0.16,0.388,0.328,0.76,0.492,1.148
	c0.168,0.428,0.324,0.876,0.5,1.304c0.152,0.376,0.316,0.744,0.476,1.104c0.172,0.448,0.332,0.912,0.516,1.344
	c0.152,0.38,0.316,0.748,0.476,1.112c0.172,0.444,0.332,0.904,0.516,1.344c0.152,0.376,0.316,0.748,0.476,1.108
	c0.172,0.444,0.332,0.908,0.516,1.344c0.16,0.392,0.328,0.764,0.492,1.156c0.168,0.424,0.324,0.868,0.5,1.296
	c0.152,0.376,0.316,0.744,0.476,1.108c0.172,0.444,0.332,0.908,0.516,1.344c0.152,0.38,0.316,0.752,0.476,1.108
	c0.172,0.448,0.332,0.908,0.516,1.344c0.152,0.38,0.316,0.752,0.476,1.116c0.172,0.44,0.332,0.904,0.516,1.344
	c0.152,0.376,0.316,0.744,0.476,1.104c0.172,0.448,0.332,0.912,0.516,1.348c0.16,0.392,0.328,0.764,0.492,1.152
	c0.168,0.424,0.324,0.872,0.5,1.296c0.152,0.38,0.316,0.748,0.476,1.112c0.172,0.444,0.332,0.904,0.516,1.344
	c0.152,0.376,0.316,0.748,0.476,1.108c0.172,0.444,0.332,0.908,0.516,1.344c0.152,0.376,0.316,0.748,0.476,1.108
	c0.172,0.444,0.332,0.908,0.516,1.348c0.16,0.388,0.328,0.76,0.492,1.152c0.168,0.428,0.324,0.872,0.5,1.296
	c0.152,0.38,0.316,0.748,0.476,1.108c0.172,0.448,0.332,0.908,0.516,1.344c0.152,0.376,0.316,0.752,0.476,1.112
	c0.172,0.444,0.332,0.904,0.516,1.344c0.152,0.38,0.316,0.748,0.476,1.108c0.172,0.448,0.332,0.908,0.516,1.348
	c0.16,0.388,0.328,0.764,0.492,1.152c0.168,0.424,0.324,0.872,0.5,1.292c0.152,0.384,0.316,0.752,0.476,1.112
	c0.172,0.448,0.332,0.904,0.516,1.348c0.152,0.376,0.316,0.748,0.476,1.108c0.172,0.444,0.332,0.908,0.516,1.344
	c0.152,0.376,0.316,0.744,0.476,1.108c0.172,0.444,0.332,0.908,0.516,1.348c0.168,0.408,0.344,0.8,0.516,1.212
	c0.16,0.416,0.312,0.836,0.48,1.248c0.16,0.396,0.328,0.768,0.492,1.156c0.168,0.428,0.324,0.868,0.5,1.296
	c0.152,0.376,0.312,0.744,0.476,1.112c0.172,0.44,0.336,0.904,0.516,1.344c0.152,0.376,0.312,0.748,0.476,1.112
	c0.172,0.444,0.336,0.904,0.516,1.344c0.152,0.376,0.312,0.744,0.476,1.108c0.172,0.444,0.336,0.908,0.516,1.344
	c0.16,0.392,0.328,0.764,0.492,1.148c0.168,0.432,0.32,0.876,0.5,1.3c0.148,0.38,0.312,0.748,0.472,1.112
	c0.176,0.444,0.336,0.904,0.52,1.344c0.148,0.376,0.312,0.744,0.472,1.108c0.176,0.444,0.336,0.908,0.52,1.344
	c0.148,0.38,0.312,0.748,0.472,1.108c0.176,0.448,0.336,0.908,0.52,1.344c0.156,0.392,0.328,0.768,0.492,1.152
	c0.164,0.432,0.32,0.872,0.5,1.3c0.148,0.376,0.312,0.744,0.472,1.108c0.172,0.444,0.336,0.908,0.52,1.348
	c0.148,0.376,0.312,0.744,0.472,1.112c0.172,0.44,0.336,0.904,0.52,1.344c0.148,0.376,0.312,0.744,0.472,1.104
	c0.172,0.448,0.336,0.912,0.52,1.344c0.148,0.38,0.312,0.748,0.472,1.112c0.172,0.444,0.336,0.908,0.52,1.344
	c0.156,0.388,0.324,0.764,0.488,1.152c0.168,0.432,0.324,0.872,0.5,1.3c0.152,0.376,0.316,0.744,0.476,1.108
	c0.172,0.444,0.336,0.908,0.516,1.344c0.152,0.376,0.316,0.748,0.476,1.108c0.172,0.444,0.336,0.908,0.516,1.344
	c0.152,0.384,0.316,0.752,0.476,1.112c0.172,0.448,0.336,0.904,0.516,1.344c0.16,0.388,0.328,0.768,0.492,1.152
	c0.168,0.428,0.324,0.872,0.5,1.296c0.152,0.38,0.316,0.748,0.476,1.112c0.172,0.444,0.336,0.904,0.516,1.348
	c0.152,0.376,0.316,0.744,0.476,1.104c0.172,0.448,0.336,0.912,0.516,1.344c0.152,0.38,0.316,0.748,0.476,1.112
	c0.172,0.444,0.336,0.904,0.516,1.344c0.16,0.388,0.328,0.764,0.492,1.148c0.168,0.432,0.324,0.876,0.5,1.304
	c0.152,0.376,0.316,0.744,0.476,1.108c0.172,0.444,0.336,0.908,0.516,1.344c0.152,0.376,0.316,0.744,0.476,1.108
	c0.172,0.444,0.336,0.908,0.516,1.344c0.168,0.416,0.344,0.804,0.516,1.216c0.164,0.416,0.312,0.836,0.48,1.248
	c0.152,0.38,0.316,0.748,0.476,1.116c0.172,0.44,0.332,0.904,0.516,1.344c0.16,0.384,0.328,0.76,0.492,1.148
	c0.168,0.428,0.324,0.876,0.5,1.3c0.152,0.38,0.316,0.748,0.476,1.108c0.172,0.448,0.332,0.908,0.516,1.344
	c0.152,0.38,0.316,0.748,0.476,1.112c0.172,0.444,0.332,0.904,0.516,1.344c0.152,0.376,0.316,0.744,0.476,1.108
	c0.172,0.444,0.332,0.908,0.516,1.344c0.16,0.392,0.328,0.764,0.492,1.152c0.168,0.428,0.324,0.872,0.5,1.3
	c0.152,0.376,0.316,0.744,0.476,1.108c0.172,0.444,0.332,0.908,0.516,1.344c0.152,0.38,0.316,0.748,0.476,1.108
	c0.172,0.448,0.332,0.908,0.516,1.344c0.152,0.376,0.316,0.748,0.476,1.112c0.172,0.444,0.332,0.904,0.516,1.344
	c0.16,0.388,0.328,0.764,0.492,1.152c0.168,0.428,0.324,0.876,0.5,1.3c0.152,0.376,0.316,0.748,0.476,1.104
	c0.172,0.448,0.332,0.912,0.516,1.344c0.152,0.384,0.316,0.752,0.476,1.112c0.172,0.448,0.332,0.904,0.516,1.348
	c0.152,0.376,0.316,0.744,0.476,1.108c0.172,0.444,0.332,0.908,0.516,1.344c0.152,0.376,0.316,0.744,0.476,1.112
	c0.172,0.44,0.332,0.904,0.516,1.344c0.16,0.388,0.328,0.76,0.492,1.144c0.168,0.436,0.324,0.88,0.5,1.304
	c0.152,0.38,0.316,0.748,0.476,1.108c0.172,0.448,0.332,0.908,0.516,1.344c0.152,0.376,0.316,0.744,0.476,1.112
	c0.172,0.44,0.332,0.904,0.516,1.344c0.152,0.376,0.316,0.748,0.476,1.112c0.172,0.444,0.332,0.904,0.516,1.344
	c0.16,0.388,0.328,0.764,0.492,1.148c0.168,0.428,0.324,0.876,0.5,1.296c0.152,0.384,0.316,0.752,0.476,1.112
	c0.172,0.448,0.332,0.904,0.516,1.344c0.152,0.38,0.316,0.748,0.476,1.112c0.172,0.444,0.332,0.904,0.516,1.344
	c0.152,0.376,0.316,0.744,0.476,1.108c0.124,0.32,0.248,0.648,0.372,0.968c10.204,1.244,20.572,1.944,31.1,1.944
	C369.632,512,465.916,437.936,499.36,335.472z"/>
<path style="fill:#E6E6E6;" d="M386,276.22c-5.5-14.28-10-33.72-10-68.58H256H136c0,34.86-4.5,54.288-10,68.58
	c-5.5,14.284,11.16,26.556,22.9,35.6C194.5,347,198.5,384,256,384s61.5-37,107.1-72.18C374.84,302.764,391.5,290.5,386,276.22z"/>
<path style="fill:#CCCCCC;" d="M386,276.22c-5.5-14.28-10-33.72-10-68.58h-12c0,34.86,4.5,54.288,10,68.58
	c5.5,14.284-11.16,26.556-22.9,35.6c-43.956,33.916-49.276,69.5-101.1,72.024c1.94,0.092,3.924,0.156,6,0.156
	c57.5,0,61.5-37,107.1-72.18C374.84,302.764,391.5,290.5,386,276.22z"/>
<circle style="fill:#F5F5F5;" cx="299" cy="257" r="20"/>
<circle style="fill:#242424;" cx="299" cy="257" r="12"/>
<circle style="fill:#F5F5F5;" cx="211" cy="257" r="20"/>
<circle style="fill:#242424;" cx="211" cy="257" r="12"/>
<path style="fill:#CC803D;" d="M403.14,99c-1.876-1.924-4.452-3-7.14-3c-29.804,0-79.836,19.072-111.408,47.82
	C276.6,139.04,266.828,136,256,136s-20.604,3.04-28.6,7.82C195.824,115.072,145.796,96,116,96c-2.688,0-5.264,1.076-7.14,3.008
	c-1.884,1.916-2.908,4.512-2.86,7.188c0.476,23.632,11.436,52.188,21.092,77.408c3.236,8.416,6.348,28.544,8.908,36.044
	C242,217.672,236,314.672,236,346h40.064c0-31.32-5.992-128.28,99.936-126.352v-12c2.564-7.508,5.684-15.644,8.916-24.068
	c9.664-25.196,20.616-53.752,21.084-77.384C406.048,103.508,405.024,100.92,403.14,99z"/>
<g>
	<path style="fill:#B37035;" d="M280.384,147.58c1.416-1.276,2.9-2.52,4.368-3.752c-7.664-4.74-19-7.82-28.752-7.82
		c-2.044,0-4.036,0.14-6,0.348C258.436,137.244,273.908,143.7,280.384,147.58z"/>
	<path style="fill:#B37035;" d="M403.14,99c-1.876-1.924-4.452-3-7.14-3c-2.78,0-5.78,0.22-8.892,0.544
		c1.508,0.496,2.908,1.3,4.032,2.456c1.884,1.92,2.908,4.508,2.86,7.196c-0.468,23.624-11.42,52.188-21.084,77.384
		c-3.236,8.416-6.36,16.56-8.916,24.068v12C258.072,217.72,264.064,314.68,264.064,346h12c0-31.32-5.992-128.28,99.936-126.352v-12
		c2.564-7.508,5.684-15.644,8.916-24.068c9.664-25.196,20.612-53.752,21.084-77.384C406.048,103.508,405.024,100.92,403.14,99z"/>
	<path style="fill:#B37035;" d="M219.216,147.58c2.392-1.42,5.496-2.676,8.184-3.752C195.084,114.672,145.5,96,116,96
		c-1.072,0-2.112,0.216-3.108,0.544C143.024,99.696,190.584,121.512,219.216,147.58z"/>
</g>
<path style="fill:#242424;" d="M256,376c-10-10-20-18.976-20-30.008c0-11.028,8.976-19.992,20-19.992c11.024,0,20,8.964,20,19.992
	C276,357.024,266,366,256,376z"/>
<g>
	<path style="fill:#B36624;" d="M386,116c-10,0-60,10-70,30c10,10,50,40,50,40C376,166,386,126,386,116z"/>
	<path style="fill:#B36624;" d="M126,116c10,0,60,10,70,30c-10,10-50,40-50,40C136,166,126,126,126,116z"/>
</g>
<g>
</g>
<g>
</g>
<g>
</g>
<g>
</g>
<g>
</g>
<g>
</g>
<g>
</g>
<g>
</g>
<g>
</g>
<g>
</g>
<g>
</g>
<g>
</g>
<g>
</g>
<g>
</g>
<g>
</g>
</svg>
