<?xml version="1.0" encoding="iso-8859-1"?>
<!-- Generator: Adobe Illustrator 19.0.0, SVG Export Plug-In . SVG Version: 6.00 Build 0)  -->
<svg version="1.1" id="Layer_1" xmlns="http://www.w3.org/2000/svg" xmlns:xlink="http://www.w3.org/1999/xlink" x="0px" y="0px"
	 viewBox="0 0 512 512" style="enable-background:new 0 0 512 512;" xml:space="preserve">
<circle style="fill:#F2CF61;" cx="256" cy="256" r="256"/>
<path style="fill:#E6C45C;" d="M477.356,384.544c-0.224-0.56-0.48-1.076-0.704-1.628c-0.068-0.18-0.112-0.38-0.176-0.564
	c-0.244-0.668-0.564-1.252-0.816-1.896c-0.068-0.184-0.112-0.38-0.176-0.568c-0.244-0.672-0.564-1.252-0.82-1.912
	c-0.064-0.176-0.108-0.38-0.172-0.552c-0.244-0.672-0.564-1.252-0.82-1.904c-0.064-0.184-0.108-0.38-0.172-0.56
	c-0.244-0.668-0.564-1.252-0.816-1.9c-0.068-0.18-0.112-0.384-0.176-0.568c-0.244-0.668-0.564-1.252-0.816-1.896
	c-0.064-0.188-0.112-0.384-0.176-0.572c-0.244-0.672-0.564-1.252-0.82-1.908c-0.064-0.18-0.108-0.368-0.172-0.548
	c-0.244-0.672-0.56-1.252-0.82-1.908c-0.064-0.184-0.108-0.38-0.172-0.56c-0.244-0.668-0.56-1.252-0.82-1.904
	c-0.064-0.188-0.108-0.384-0.172-0.564c-0.24-0.668-0.56-1.252-0.812-1.9c-0.068-0.18-0.116-0.376-0.18-0.568
	c-0.24-0.664-0.56-1.252-0.812-1.896c-0.068-0.188-0.116-0.384-0.18-0.572c-0.24-0.672-0.56-1.252-0.82-1.908
	c-0.064-0.18-0.1-0.368-0.172-0.548c-0.24-0.672-0.56-1.252-0.82-1.904c-0.064-0.188-0.1-0.384-0.172-0.564
	c-0.24-0.668-0.56-1.252-0.812-1.904c-0.068-0.18-0.108-0.376-0.18-0.564c-0.24-0.664-0.56-1.252-0.812-1.896
	c-0.068-0.184-0.108-0.38-0.18-0.568c-0.24-0.672-0.56-1.252-0.82-1.912c-0.064-0.176-0.1-0.372-0.172-0.552
	c-0.24-0.664-0.56-1.252-0.82-1.9c-0.064-0.188-0.1-0.384-0.172-0.564c-0.24-0.668-0.56-1.252-0.812-1.9
	c-0.064-0.18-0.108-0.38-0.18-0.568c-0.244-0.68-0.568-1.268-0.828-1.924c-0.064-0.172-0.096-0.352-0.164-0.524
	c-0.244-0.676-0.564-1.256-0.816-1.916c-0.068-0.18-0.108-0.368-0.176-0.548c-0.244-0.672-0.564-1.252-0.816-1.908
	c-0.068-0.18-0.108-0.38-0.172-0.56c-0.248-0.668-0.568-1.252-0.82-1.904c-0.068-0.184-0.108-0.38-0.172-0.56
	c-0.248-0.672-0.568-1.252-0.816-1.904c-0.072-0.18-0.1-0.384-0.176-0.564c-0.248-0.672-0.568-1.252-0.816-1.9
	c-0.072-0.184-0.1-0.384-0.176-0.564c-0.248-0.672-0.568-1.256-0.82-1.912c-0.068-0.18-0.104-0.372-0.172-0.552
	c-0.248-0.672-0.568-1.252-0.82-1.908c-0.068-0.18-0.104-0.376-0.172-0.556c-0.248-0.672-0.568-1.252-0.816-1.9
	c-0.064-0.188-0.1-0.388-0.176-0.568c-0.248-0.672-0.568-1.252-0.816-1.9c-0.064-0.184-0.1-0.38-0.176-0.568
	c-0.248-0.672-0.56-1.252-0.82-1.908c-0.064-0.18-0.104-0.376-0.172-0.556c-0.24-0.664-0.56-1.252-0.82-1.904
	c-0.064-0.18-0.104-0.376-0.172-0.556c-0.24-0.672-0.56-1.252-0.808-1.904c-0.072-0.18-0.108-0.384-0.18-0.564
	c-0.244-0.672-0.564-1.252-0.812-1.9c-0.072-0.188-0.108-0.384-0.18-0.564c-0.244-0.676-0.564-1.256-0.82-1.912
	c-0.068-0.184-0.104-0.372-0.172-0.552c-0.244-0.672-0.564-1.252-0.82-1.908c-0.068-0.18-0.104-0.376-0.172-0.556
	c-0.244-0.672-0.564-1.252-0.82-1.908c-0.068-0.184-0.104-0.38-0.172-0.56c-0.244-0.672-0.564-1.252-0.812-1.904
	c-0.072-0.18-0.108-0.376-0.18-0.564c-0.244-0.672-0.564-1.256-0.82-1.908c-0.068-0.18-0.104-0.376-0.172-0.556
	c-0.244-0.664-0.564-1.252-0.82-1.904c-0.068-0.18-0.104-0.376-0.172-0.56c-0.244-0.672-0.56-1.252-0.82-1.904
	c-0.064-0.184-0.104-0.38-0.172-0.56c-0.24-0.672-0.556-1.252-0.812-1.9c-0.064-0.188-0.108-0.384-0.18-0.568
	c-0.236-0.668-0.556-1.252-0.812-1.9c-0.064-0.184-0.108-0.38-0.176-0.568c-0.24-0.672-0.56-1.252-0.82-1.908
	c-0.068-0.18-0.108-0.376-0.172-0.548c-0.24-0.672-0.56-1.252-0.82-1.908c-0.068-0.184-0.104-0.38-0.172-0.56
	c-0.248-0.68-0.568-1.272-0.832-1.928c-0.064-0.172-0.1-0.356-0.164-0.528c-0.244-0.668-0.564-1.252-0.816-1.896
	c-0.068-0.192-0.112-0.388-0.176-0.568c-0.244-0.676-0.564-1.252-0.82-1.916c-0.064-0.18-0.108-0.368-0.172-0.548
	c-0.244-0.664-0.564-1.252-0.82-1.904c-0.064-0.184-0.108-0.384-0.172-0.564c-0.244-0.664-0.564-1.252-0.82-1.904
	c-0.064-0.184-0.108-0.38-0.172-0.56c-0.244-0.668-0.564-1.252-0.816-1.896c-0.064-0.188-0.112-0.384-0.176-0.572
	c-0.244-0.672-0.564-1.252-0.82-1.912c-0.064-0.172-0.108-0.372-0.172-0.552c-0.244-0.664-0.56-1.252-0.82-1.9
	c-0.064-0.184-0.108-0.384-0.172-0.564c-0.24-0.664-0.56-1.252-0.82-1.9c-0.064-0.184-0.1-0.38-0.172-0.56
	c-0.24-0.668-0.56-1.252-0.812-1.896c-0.068-0.188-0.108-0.384-0.18-0.568c-0.24-0.672-0.56-1.252-0.82-1.912
	c-0.064-0.18-0.1-0.368-0.172-0.548c-0.24-0.668-0.56-1.252-0.82-1.9c-0.064-0.184-0.1-0.384-0.172-0.564
	c-0.24-0.664-0.56-1.252-0.82-1.9c-0.064-0.184-0.1-0.38-0.172-0.56c-0.24-0.668-0.56-1.252-0.812-1.896
	c-0.064-0.188-0.108-0.384-0.18-0.568c-0.24-0.668-0.56-1.252-0.812-1.896c-0.064-0.188-0.108-0.384-0.18-0.568
	c-0.24-0.672-0.556-1.252-0.812-1.908c-0.072-0.18-0.108-0.372-0.18-0.552c-0.236-0.664-0.556-1.252-0.812-1.9
	c-0.072-0.184-0.108-0.38-0.172-0.56c-0.244-0.668-0.564-1.252-0.82-1.904c-0.072-0.184-0.108-0.38-0.172-0.56
	c-0.244-0.668-0.564-1.252-0.816-1.896c-0.068-0.188-0.112-0.384-0.176-0.568c-0.244-0.672-0.564-1.252-0.82-1.908
	c-0.072-0.176-0.104-0.372-0.172-0.552c-0.244-0.664-0.564-1.252-0.82-1.9c-0.072-0.184-0.104-0.38-0.172-0.56
	c-0.244-0.668-0.564-1.252-0.82-1.904c-0.072-0.184-0.1-0.38-0.172-0.56c-0.244-0.668-0.564-1.252-0.816-1.896
	c-0.068-0.188-0.104-0.384-0.176-0.568c-0.244-0.672-0.564-1.252-0.82-1.908c-0.064-0.18-0.1-0.372-0.172-0.552
	c-0.244-0.664-0.564-1.252-0.82-1.9c-0.064-0.184-0.1-0.38-0.172-0.56c-0.244-0.684-0.572-1.276-0.832-1.932
	c-0.06-0.172-0.096-0.352-0.164-0.524c-0.24-0.668-0.56-1.252-0.812-1.9c-0.068-0.18-0.104-0.376-0.18-0.564
	c-0.24-0.672-0.56-1.252-0.82-1.908c-0.064-0.176-0.104-0.376-0.172-0.548c-0.24-0.672-0.56-1.252-0.82-1.904
	c-0.064-0.184-0.104-0.38-0.172-0.56c-0.24-0.668-0.56-1.252-0.816-1.9c-0.068-0.188-0.108-0.384-0.176-0.564
	c-0.24-0.668-0.56-1.252-0.808-1.9c-0.076-0.188-0.116-0.384-0.18-0.564c-0.244-0.668-0.564-1.252-0.812-1.9
	c-0.076-0.18-0.116-0.376-0.18-0.564c-0.244-0.664-0.564-1.252-0.82-1.9c-0.068-0.18-0.104-0.376-0.172-0.556
	c-0.244-0.668-0.564-1.256-0.82-1.904c-0.068-0.18-0.104-0.372-0.172-0.552c-0.244-0.668-0.56-1.252-0.812-1.9
	c-0.076-0.18-0.112-0.376-0.18-0.56c-0.244-0.668-0.56-1.252-0.82-1.904c-0.068-0.18-0.104-0.372-0.172-0.552
	c-0.24-0.668-0.56-1.252-0.812-1.9c-0.076-0.18-0.112-0.376-0.18-0.56c-0.732-2.052-1.576-3.988-2.508-5.828
	c-0.264-0.512-0.592-0.96-0.88-1.456c-0.724-1.284-1.432-2.572-2.252-3.752c-0.368-0.524-0.784-0.98-1.172-1.484
	c-0.804-1.072-1.6-2.152-2.484-3.132c-0.428-0.48-0.908-0.892-1.352-1.348c-0.9-0.924-1.788-1.86-2.748-2.7
	c-0.48-0.424-1.008-0.788-1.5-1.196c-0.964-0.796-1.932-1.6-2.948-2.32c-0.524-0.372-1.076-0.688-1.6-1.04
	c-1.024-0.672-2.04-1.356-3.084-1.96c-0.584-0.336-1.196-0.62-1.78-0.936c-1.024-0.54-2.04-1.092-3.08-1.576
	c-0.664-0.308-1.328-0.564-1.992-0.848c-0.976-0.416-1.944-0.844-2.92-1.208c-0.752-0.28-1.492-0.504-2.252-0.756
	c-0.888-0.3-1.772-0.616-2.656-0.872c-0.86-0.252-1.696-0.448-2.54-0.668c-0.752-0.192-1.508-0.404-2.252-0.568
	c-0.96-0.216-1.904-0.38-2.836-0.548c-0.584-0.104-1.18-0.232-1.752-0.32c-1.076-0.168-2.084-0.284-3.096-0.396
	c-0.408-0.044-0.812-0.104-1.2-0.14c-1.136-0.104-2.216-0.164-3.26-0.2c-0.228-0.008-0.464-0.028-0.688-0.032
	c-0.688-0.016-1.328-0.008-1.964,0c-0.512,0.004-1.028,0.012-1.504,0.036c-0.008,0-0.016,0-0.032,0s-0.032,0-0.052,0.004
	c-0.48,0.024-0.932,0.06-1.396,0.1c-0.564,0.052-1.084,0.112-1.584,0.184c-0.016,0-0.032,0.004-0.04,0.004
	c-0.312,0.044-0.632,0.084-0.916,0.14c-0.78,0.148-1.5,0.312-2.092,0.516c0,0,0.04,0.12,0.084,0.296
	c-17.032-19.156-41.828-31.916-69.82-33.984c-0.416-0.032-0.82-0.06-1.236-0.088c-2.248-0.14-4.508-0.236-6.788-0.236
	c-2.276,0-4.54,0.096-6.776,0.236c-0.416,0.028-0.832,0.06-1.248,0.088c-27.86,2.06-52.552,14.712-69.572,33.712
	c0-0.004,0.008-0.028,0.008-0.028c-0.592-0.204-1.304-0.372-2.084-0.516c-0.328-0.064-0.696-0.108-1.056-0.16
	c-0.46-0.064-0.936-0.124-1.444-0.168c-0.516-0.044-1.04-0.084-1.588-0.108c-0.404-0.02-0.824-0.024-1.248-0.032
	c-0.664-0.012-1.312-0.028-2.024-0.012c-0.008,0-0.008,0-0.008,0c-16.572,0.372-45.584,8.76-54.96,35.288
	c-11.664,33-4.664,81-12,101c-2.68,7.312-2.132,12.696-0.088,16.584c0.272,0.88,0.596,1.708,0.992,2.456
	c0.268,0.88,0.596,1.708,0.996,2.46c0.264,0.876,0.592,1.696,0.988,2.44c0.268,0.88,0.596,1.708,0.992,2.456
	c0.268,0.88,0.596,1.708,0.992,2.452c0.268,0.88,0.596,1.708,0.992,2.452c0.268,0.884,0.596,1.712,0.996,2.468
	c0.264,0.868,0.592,1.688,0.984,2.436c0.272,0.884,0.596,1.708,0.992,2.46c0.272,0.876,0.596,1.704,0.992,2.448
	c0.272,0.896,0.6,1.732,1.008,2.484c0.264,0.868,0.588,1.68,0.984,2.424c0.268,0.876,0.592,1.704,0.992,2.452
	c0.268,0.876,0.592,1.704,0.992,2.452c0.268,0.884,0.592,1.712,0.992,2.464c0.268,0.872,0.592,1.692,0.992,2.44
	c0.268,0.88,0.592,1.708,0.988,2.456c0.272,0.88,0.596,1.708,0.992,2.452c0.272,0.884,0.596,1.712,0.996,2.464
	c0.264,0.872,0.592,1.692,0.988,2.444c0.268,0.876,0.596,1.704,0.992,2.452c0.268,0.876,0.596,1.704,0.992,2.452
	c0.268,0.876,0.596,1.704,0.992,2.452c0.268,0.884,0.596,1.712,0.996,2.468c0.264,0.868,0.592,1.688,0.988,2.44
	c0.268,0.876,0.596,1.704,0.988,2.452c0.272,0.876,0.6,1.704,0.992,2.456c0.272,0.88,0.596,1.704,1,2.46
	c0.264,0.876,0.588,1.696,0.984,2.444c0.272,0.876,0.596,1.704,0.992,2.452c0.272,0.876,0.596,1.704,0.992,2.452
	c0.272,0.884,0.596,1.712,1,2.464c0.264,0.872,0.588,1.692,0.984,2.44c0.272,0.88,0.596,1.708,0.992,2.452
	c0.272,0.88,0.596,1.704,0.992,2.452c0.272,0.892,0.6,1.728,1.004,2.484c0.268,0.868,0.592,1.688,0.988,2.436
	c0.268,0.876,0.592,1.696,0.988,2.444c0.272,0.876,0.596,1.704,0.992,2.448c0.268,0.88,0.596,1.708,0.992,2.46
	c0.268,0.876,0.596,1.704,0.996,2.456c0.264,0.88,0.592,1.7,0.988,2.444c0.268,0.876,0.596,1.704,0.992,2.452
	c0.268,0.884,0.596,1.708,0.992,2.46c0.268,0.876,0.596,1.704,0.996,2.46c0.264,0.876,0.592,1.688,0.984,2.44
	c0.272,0.88,0.596,1.708,0.992,2.452c0.272,0.88,0.596,1.704,0.992,2.456c0.272,0.88,0.596,1.708,0.992,2.452
	c0.272,0.884,0.596,1.712,1,2.46c0.264,0.876,0.588,1.696,0.984,2.444c0.272,0.876,0.596,1.704,0.992,2.452
	c0.272,0.884,0.596,1.712,0.992,2.456c0.272,0.88,0.596,1.708,0.996,2.46c0.268,0.876,0.592,1.696,0.988,2.44
	c0.272,0.88,0.596,1.708,0.992,2.46c0.272,0.876,0.592,1.704,0.992,2.452c0.272,0.884,0.592,1.712,0.996,2.46
	c0.268,0.876,0.588,1.696,0.988,2.444c0.272,0.876,0.592,1.704,0.992,2.452c0.272,0.884,0.6,1.72,1.004,2.48
	c0.268,0.872,0.588,1.684,0.984,2.428c0.268,0.884,0.596,1.712,0.996,2.464c0.264,0.872,0.592,1.688,0.988,2.44
	c0.268,0.88,0.596,1.708,0.988,2.456c0.272,0.876,0.596,1.704,0.992,2.452c0.272,0.884,0.596,1.712,1,2.46
	c0.264,0.876,0.588,1.696,0.984,2.444c0.272,0.876,0.596,1.704,0.992,2.456c0.272,0.876,0.596,1.704,0.992,2.448
	c0.272,0.888,0.596,1.716,1,2.468c0.264,0.868,0.588,1.688,0.984,2.436c0.272,0.88,0.596,1.708,0.992,2.46
	c0.272,0.876,0.596,1.704,0.992,2.452c0.272,0.876,0.596,1.704,0.992,2.452c0.272,0.884,0.592,1.712,0.996,2.464
	c0.268,0.872,0.588,1.692,0.988,2.44c0.272,0.88,0.592,1.708,0.992,2.452c0.272,0.876,0.592,1.704,0.992,2.456
	c0.084,0.26,0.204,0.48,0.296,0.732C204.384,508.028,229.728,512,256,512C350.516,512,433.008,460.744,477.356,384.544z"/>
<g>
	<path style="fill:#A67C52;" d="M255.916,120.016c-56.116,0-101.608,42.972-101.608,95.984c0,14.32,0,49.984,0,65.984
		c0,0.916,0.064,1.772,0.16,2.616c1.18,38.468,25.448,107.384,101.448,107.384c80,0,100.272-68.916,101.452-107.384
		c0.096-0.844,0.16-1.704,0.16-2.616c0-16,0-51.664,0-65.984C357.532,162.988,312.04,120.016,255.916,120.016z"/>
	<path style="fill:#A67C52;" d="M333.668,154.028c10.668-3.668,52.748,1.292,64.416,34.292c11.664,33,4.664,81,12,101
		c7.328,20-9.336,25.672-15.336,25.336s-42,2.664-44.664-57.004C347.416,197.984,333.668,154.028,333.668,154.028z"/>
</g>
<g>
	<path style="fill:#99724C;" d="M410.084,289.32c-7.336-20-0.336-68.004-12-101c-11.5-32.512-52.456-37.788-63.868-34.428
		c16.576,2.704,38.248,12.176,46.104,34.428c11.668,33,4.668,81,12,101c5.416,14.78-2.26,21.724-9.076,24.212
		c5.352,1.204,9.732,1.032,11.492,1.124C400.752,314.992,417.416,309.32,410.084,289.32z"/>
	<path style="fill:#99724C;" d="M255.916,120.016c-1.744,0-3.468,0.044-5.196,0.124c53.708,2.556,96.416,44.496,96.416,95.86
		c0,14.32,0,49.984,0,65.984c0,0.916-0.068,1.772-0.16,2.616c-1.152,37.588-20.584,104.232-96.132,107.24
		c1.672,0.076,3.34,0.144,5.072,0.144c80,0,100.272-68.916,101.452-107.384c0.096-0.844,0.16-1.704,0.16-2.616
		c0-16,0-51.664,0-65.984C357.532,162.988,312.04,120.016,255.916,120.016z"/>
	<path style="fill:#99724C;" d="M342.944,153.02c-3.96-0.076-7.22,0.296-9.276,1.004c0,0,0.036,0.12,0.088,0.296
		c14.828,16.68,23.764,38.188,23.764,61.676c0,14.32,0,49.984,0,65.984c0,0.916-0.064,1.776-0.16,2.612
		c-0.064,2.024-0.192,4.14-0.364,6.312c2.516,5.516,5.516,9.756,8.744,13c1.204-6.912,1.828-13.46,2.008-19.312
		c0.092-0.836,0.164-1.704,0.164-2.612c0-16,0-51.664,0-65.984C367.916,191.892,358.484,169.88,342.944,153.02z"/>
</g>
<path style="fill:#F5F5F5;" d="M255.916,120.016c-4.94,0-9.796,0.352-14.56,0.996c3.364,15.324,6.56,34.336,6.56,46.972
	c0,116.356-56.828,151.132-57.82,199.556c15.516,14.468,36.916,24.444,65.82,24.444c29.272,0,50.528-9.252,65.796-22.84
	c0.252-49.268-57.796-83.536-57.796-201.16c0-12.636,3.196-31.652,6.56-46.972C265.72,120.368,260.86,120.016,255.916,120.016z"/>
<path style="fill:#EDEDED;" d="M228.208,257.512c0,10.192-8.26,18.472-18.472,18.472c-10.216,0-18.476-8.28-18.476-18.472
	c0-10.232,8.26-18.476,18.476-18.476C219.944,239.036,228.208,247.28,228.208,257.512z"/>
<circle style="fill:#242424;" cx="209.72" cy="257.52" r="9.24"/>
<path style="fill:#EDEDED;" d="M320.584,257.512c0,10.192-8.26,18.472-18.476,18.472c-10.212,0-18.472-8.28-18.472-18.472
	c0-10.232,8.26-18.476,18.472-18.476S320.584,247.28,320.584,257.512z"/>
<circle style="fill:#242424;" cx="302.12" cy="257.52" r="9.24"/>
<path style="fill:#A67C52;" d="M178.332,154.028c-10.668-3.668-52.748,1.292-64.416,34.292c-11.664,33-4.664,81-12,101
	c-7.328,20,9.336,25.672,15.336,25.336s42,2.664,44.664-57.004C164.584,197.984,178.332,154.028,178.332,154.028z"/>
<path style="fill:#242424;" d="M262.444,351.796l27.72-27.712c2.392-2.408,3.28-5.912,2.328-9.148
	c-0.956-3.252-3.616-5.712-6.928-6.42c-27.78-5.936-31.484-5.936-59.28,0c-3.312,0.712-5.972,3.176-6.928,6.42
	c-0.952,3.244-0.064,6.752,2.328,9.148l27.712,27.712c0.752,0.752,1.62,1.312,2.532,1.752v2.844c-9.116,1.86-16,9.936-16,19.592
	c0,2.212,1.784,4,4,4c2.212,0,4-1.788,4-4c0-6.616,5.384-12,12-12c6.612,0,12,5.384,12,12c0,2.212,1.78,4,4,4c2.212,0,4-1.788,4-4
	c0-9.656-6.892-17.744-16-19.592v-2.836C260.824,353.108,261.696,352.556,262.444,351.796z"/>
<path style="fill:#99724C;" d="M154.464,284.6c-0.096-0.844-0.16-1.704-0.16-2.616c0-16,0-51.664,0-65.984
	c0-23.616,9.048-45.224,24.02-61.944c0-0.004,0.008-0.028,0.008-0.028c-2.088-0.72-5.416-1.088-9.456-1
	c-15.536,16.856-24.96,38.868-24.96,62.972c0,14.32,0,49.984,0,65.984c0,0.916,0.068,1.772,0.164,2.616
	c0.18,5.828,0.9,12.372,2.24,19.252c3.148-3.18,6.088-7.332,8.576-12.7C154.676,288.9,154.528,286.7,154.464,284.6z"/>
<g>
</g>
<g>
</g>
<g>
</g>
<g>
</g>
<g>
</g>
<g>
</g>
<g>
</g>
<g>
</g>
<g>
</g>
<g>
</g>
<g>
</g>
<g>
</g>
<g>
</g>
<g>
</g>
<g>
</g>
</svg>
