<?xml version="1.0" encoding="iso-8859-1"?>
<!-- Generator: Adobe Illustrator 19.0.0, SVG Export Plug-In . SVG Version: 6.00 Build 0)  -->
<svg version="1.1" id="Layer_1" xmlns="http://www.w3.org/2000/svg" xmlns:xlink="http://www.w3.org/1999/xlink" x="0px" y="0px"
	 viewBox="0 0 512 512" style="enable-background:new 0 0 512 512;" xml:space="preserve">
<circle style="fill:#F6B45C;" cx="256" cy="256" r="256"/>
<path style="fill:#F2BF61;" d="M472.58,392.42c-0.252-0.616-0.484-1.244-0.752-1.86c-0.324-0.804-0.644-1.608-0.98-2.416
	c-0.324-0.82-0.652-1.64-0.992-2.456c-0.324-0.82-0.652-1.636-0.992-2.456c-0.328-0.828-0.66-1.656-1.004-2.484
	c-0.324-0.804-0.64-1.612-0.976-2.416c-0.34-0.848-0.68-1.692-1.032-2.54c-0.316-0.792-0.624-1.584-0.96-2.38
	c-0.32-0.82-0.648-1.64-0.992-2.452c-0.32-0.828-0.656-1.66-1-2.488c-0.32-0.808-0.64-1.616-0.976-2.416
	c-0.328-0.82-0.656-1.64-0.992-2.452c-0.328-0.82-0.656-1.64-0.992-2.456c-0.328-0.832-0.664-1.66-1.008-2.488
	c-0.32-0.808-0.64-1.616-0.976-2.42c-0.328-0.812-0.652-1.632-0.992-2.452c-0.324-0.816-0.652-1.636-0.992-2.452
	c-0.328-0.828-0.66-1.66-1.004-2.488c-0.324-0.808-0.644-1.612-0.98-2.416c-0.324-0.82-0.652-1.64-0.992-2.452
	c-0.324-0.82-0.652-1.64-0.992-2.456c-0.324-0.82-0.652-1.64-0.992-2.456c-0.328-0.828-0.66-1.656-1.004-2.484
	c-0.324-0.804-0.644-1.612-0.98-2.416c-0.324-0.82-0.652-1.64-0.988-2.456c-0.324-0.82-0.652-1.64-0.992-2.452
	c-0.324-0.828-0.66-1.656-1.004-2.484c-0.32-0.812-0.64-1.616-0.976-2.42c-0.328-0.82-0.656-1.64-0.992-2.456
	c-0.328-0.816-0.656-1.636-0.992-2.448c-0.328-0.828-0.664-1.664-1.008-2.492c-0.328-0.836-0.664-1.672-1.016-2.5
	c-0.312-0.792-0.624-1.584-0.96-2.384c-0.32-0.812-0.648-1.632-0.992-2.452c-0.32-0.82-0.648-1.636-0.992-2.452
	c-0.328-0.828-0.656-1.66-1-2.488c-0.328-0.808-0.648-1.616-0.984-2.416c-0.32-0.82-0.648-1.64-0.988-2.452
	c-0.324-0.82-0.652-1.64-0.992-2.456c-0.328-0.832-0.66-1.66-1.004-2.488c-0.324-0.808-0.644-1.616-0.98-2.416
	c-0.324-0.82-0.652-1.64-0.988-2.456c-0.324-0.82-0.652-1.64-0.992-2.456c-0.328-0.828-0.66-1.66-1.004-2.488
	c-0.324-0.8-0.644-1.612-0.98-2.416c-0.324-0.816-0.652-1.636-0.992-2.452c-0.324-0.82-0.648-1.64-0.992-2.456
	c-0.32-0.816-0.648-1.636-0.992-2.448c-0.328-0.828-0.656-1.664-1.004-2.492c-0.324-0.804-0.644-1.612-0.98-2.416
	c-0.32-0.82-0.648-1.64-0.992-2.448c-0.32-0.82-0.648-1.64-0.992-2.46c-0.328-0.828-0.656-1.656-1-2.484
	c-0.328-0.808-0.648-1.616-0.984-2.42c-0.32-0.82-0.648-1.64-0.992-2.452c-0.32-0.82-0.648-1.64-0.992-2.456
	c-0.336-0.856-0.68-1.716-1.04-2.576c-0.312-0.776-0.624-1.564-0.944-2.336c-0.324-0.82-0.652-1.64-0.988-2.456
	c-0.324-0.82-0.652-1.64-0.992-2.456c-0.328-0.832-0.66-1.66-1.004-2.488c-0.324-0.808-0.644-1.616-0.98-2.416
	c-0.324-0.82-0.652-1.64-0.992-2.456c-0.324-0.82-0.652-1.64-0.992-2.456c-0.324-0.82-0.652-1.64-0.992-2.456
	c-0.328-0.832-0.66-1.66-1.004-2.488c-0.324-0.804-0.644-1.612-0.98-2.416c-0.324-0.82-0.652-1.64-0.992-2.456
	c-7.328-18.38-18.248-36.52-32.268-57.028c-0.916-1.224-3.68-4.812-7.752-9.492c-0.276-0.752-0.584-1.492-0.916-2.22
	c-0.292-0.84-0.624-1.664-1-2.468c-0.284-0.832-0.616-1.644-0.976-2.44c-0.296-0.836-0.628-1.648-0.992-2.452
	c-3.752-10.548-12.86-18.552-24.064-20.696c-0.212-0.528-0.42-1.044-0.664-1.556c-0.296-0.836-0.616-1.656-0.992-2.452
	c-0.296-0.844-0.624-1.664-0.992-2.468c-0.296-0.828-0.624-1.644-0.992-2.44c-0.292-0.836-0.616-1.656-0.992-2.456
	c-4.424-12.348-16.212-21.2-30.084-21.2c-1.024,0-2.036,0.06-3.036,0.152c-0.016,0-0.032,0.004-0.056,0.004
	c-6.408,0.616-12.252,3.116-16.992,6.944c-19.5-5.104-41.832-2.356-45.752-1.496c0.012,0,0.036,0,0.048,0
	c-2.42,0.38-4.924,0.86-7.468,1.496c-0.72-0.584-1.456-1.12-2.228-1.636c-0.544-0.376-1.092-0.696-1.648-1.028
	c-0.208-0.116-0.404-0.252-0.604-0.364c-0.692-0.396-1.384-0.744-2.084-1.068c-0.084-0.044-0.176-0.084-0.264-0.132
	c-0.752-0.344-1.512-0.652-2.264-0.924c-0.08-0.028-0.144-0.06-0.216-0.084c-0.76-0.264-1.52-0.508-2.28-0.716
	c-0.116-0.032-0.232-0.068-0.348-0.096c-0.728-0.192-1.444-0.348-2.164-0.476c-0.188-0.04-0.372-0.084-0.556-0.108
	c-0.696-0.116-1.384-0.2-2.068-0.268c-0.224-0.024-0.44-0.06-0.668-0.08c-0.908-0.08-1.804-0.116-2.692-0.116
	c-1.032,0-2.052,0.056-3.056,0.152c-16.244,1.54-28.944,15.208-28.944,31.848c0,0.06,0.008,0.112,0.008,0.172
	c-14.916,1.54-26.768,13.328-28.456,28.196c-1.232,1.376-2.364,2.68-3.412,3.904c-0.068,0.084-0.132,0.156-0.196,0.236
	c-1.036,1.216-1.952,2.324-2.776,3.336c-0.016,0.02-0.044,0.052-0.06,0.072c-1.872,2.296-3.18,4.008-3.788,4.816
	c-27.024,39.52-42.656,70.456-42.656,111.608c0,1.72,0.488,3.36,1.304,4.828c0.216,0.868,0.564,1.68,0.992,2.456
	c0.216,0.868,0.564,1.68,0.996,2.46c0.212,0.86,0.56,1.672,0.988,2.44c0.216,0.868,0.564,1.68,0.992,2.456
	c0.216,0.868,0.564,1.68,0.992,2.452c0.216,0.868,0.564,1.68,0.988,2.452c0.22,0.868,0.568,1.684,1,2.464
	c0.212,0.86,0.56,1.672,0.984,2.44c0.22,0.872,0.568,1.68,0.992,2.452c0.22,0.876,0.568,1.68,0.992,2.456
	c0.22,0.876,0.572,1.696,1.004,2.476c0.22,0.86,0.564,1.664,0.984,2.424c0.216,0.876,0.568,1.688,0.992,2.456
	c0.216,0.872,0.568,1.68,0.992,2.456c0.216,0.868,0.564,1.684,0.996,2.46c0.212,0.864,0.56,1.676,0.988,2.444
	c0.216,0.868,0.564,1.68,0.992,2.452c0.216,0.868,0.564,1.68,0.992,2.456c0.216,0.868,0.564,1.684,0.996,2.456
	c0.212,0.868,0.56,1.68,0.988,2.444c0.216,0.876,0.564,1.68,0.992,2.456c0.216,0.868,0.564,1.68,0.992,2.456
	c0.216,0.868,0.564,1.68,0.992,2.452c0.216,0.868,0.564,1.688,0.996,2.456c0.212,0.872,0.56,1.676,0.988,2.448
	c0.216,0.868,0.564,1.68,0.988,2.452c0.22,0.872,0.568,1.68,0.992,2.46c0.22,0.868,0.568,1.68,0.996,2.456
	c0.216,0.864,0.564,1.672,0.988,2.444c0.22,0.868,0.568,1.68,0.992,2.456c0.22,0.868,0.568,1.68,0.992,2.448
	c0.22,0.872,0.568,1.692,0.996,2.46c0.216,0.864,0.564,1.676,0.988,2.448c0.22,0.868,0.568,1.684,0.992,2.452
	c0.216,0.868,0.564,1.68,0.992,2.452c0.216,0.876,0.572,1.696,1.004,2.472c0.212,0.864,0.56,1.672,0.988,2.44
	c0.212,0.868,0.56,1.68,0.988,2.448c0.216,0.872,0.564,1.684,0.992,2.452c0.216,0.872,0.564,1.684,0.992,2.456
	c0.216,0.872,0.564,1.684,0.996,2.46c0.212,0.86,0.56,1.672,0.988,2.444c0.216,0.868,0.564,1.68,0.992,2.452
	c0.216,0.872,0.564,1.688,0.992,2.452c0.216,0.872,0.564,1.688,0.996,2.46c0.212,0.868,0.56,1.68,0.988,2.448
	c0.216,0.868,0.564,1.684,0.988,2.452c0.22,0.872,0.568,1.68,0.992,2.456c0.22,0.868,0.568,1.68,0.992,2.452
	c0.22,0.868,0.568,1.688,0.996,2.46c0.216,0.864,0.564,1.676,0.988,2.444c0.22,0.872,0.568,1.688,0.992,2.452
	c0.22,0.868,0.568,1.68,0.992,2.456c0.22,0.872,0.568,1.684,0.996,2.464c0.212,0.86,0.564,1.672,0.988,2.436
	c0.216,0.872,0.564,1.68,0.992,2.46c0.216,0.868,0.564,1.68,0.992,2.452c0.216,0.868,0.564,1.684,0.996,2.46
	c0.212,0.864,0.56,1.672,0.988,2.444c0.216,0.868,0.564,1.68,0.992,2.452c0.216,0.876,0.568,1.696,1,2.472
	c0.216,0.86,0.56,1.672,0.988,2.432c0.216,0.876,0.564,1.692,0.996,2.46c0.212,0.868,0.56,1.68,0.988,2.448
	c0.216,0.868,0.564,1.684,0.992,2.456c0.216,0.868,0.564,1.68,0.992,2.452c0.216,0.872,0.564,1.688,0.996,2.46
	c0.212,0.86,0.56,1.672,0.988,2.444c0.216,0.868,0.564,1.68,0.988,2.452c0.22,0.872,0.568,1.688,0.992,2.452
	c0.22,0.876,0.568,1.688,0.996,2.46c0.216,0.868,0.564,1.676,0.988,2.448c0.22,0.868,0.568,1.684,0.992,2.456
	c0.22,0.868,0.568,1.68,0.992,2.452c0.22,0.868,0.568,1.688,0.992,2.452c0.22,0.868,0.568,1.684,0.996,2.46
	c0.212,0.864,0.564,1.676,0.988,2.444c0.216,0.868,0.564,1.688,0.992,2.452c0.216,0.876,0.564,1.68,0.992,2.456
	c0.216,0.868,0.564,1.684,0.996,2.464c0.212,0.86,0.56,1.672,0.988,2.444c0.216,0.868,0.564,1.68,0.992,2.448
	c0.216,0.872,0.564,1.684,0.992,2.456c0.216,0.868,0.564,1.684,0.996,2.46c0.212,0.864,0.56,1.672,0.988,2.444
	c0.216,0.876,0.568,1.696,1.004,2.468c0.212,0.86,0.556,1.672,0.984,2.436c0.204,0.82,0.54,1.584,0.928,2.312
	c22.68,6.584,46.624,10.18,71.424,10.18C347.22,512,427.236,464.252,472.58,392.42z"/>
<path style="fill:#FDFCF6;" d="M345.844,259.788c-11.812-45.884,4.812-89.784,17.256-102.752l0.052,0.02
	c-0.016-0.02-0.036-0.036-0.052-0.056c-1.704-14.856-13.556-26.62-28.444-28.16c0-0.06,0.008-0.112,0.008-0.172
	c0-17.672-14.328-32-32-32c-7.608,0-14.584,2.668-20.08,7.1C271.616,101.016,261.236,101,256,101s-15.616,0.02-26.584,2.768
	c-5.488-4.432-12.464-7.1-20.08-7.1c-17.672,0-32,14.328-32,32c0,0.06,0.008,0.112,0.008,0.172
	c-14.916,1.54-26.772,13.328-28.456,28.196c12.448,12.968,29.08,56.876,17.26,102.752C167.232,333.204,176.54,411,256,411
	c79.452,0,88.764-77.772,89.852-151.184C345.848,259.804,345.848,259.796,345.844,259.788z"/>
<g>
	<path style="fill:#EBE6C7;" d="M279.336,107.584c0.416-1.084,2.408-3.252,3.252-3.812c-19.5-5.104-41.828-2.36-45.748-1.496
		C242.384,102.452,272.252,104.584,279.336,107.584z"/>
	<path style="fill:#EBE6C7;" d="M363.152,157.056c-0.016-0.02-0.036-0.036-0.052-0.056c-1.704-14.856-13.556-26.62-28.444-28.16
		c0-0.06,0.008-0.112,0.008-0.172c0-17.672-14.328-32-32-32c-2.056,0-4.064,0.212-6.004,0.584
		c14.804,2.808,26.004,15.796,26.004,31.416c0,0.06-0.008,0.112-0.008,0.172c14.9,1.54,26.752,13.304,28.444,28.16
		c0.016,0.02,0.036,0.036,0.052,0.056l-0.052-0.02c-12.444,12.968-29.08,56.88-17.256,102.752c0.004,0.008,0.004,0.016,0.008,0.028
		c-1.056,71.512-9.944,147.128-83.852,150.996c1.964,0.1,3.944,0.188,6,0.188c79.452,0,88.764-77.772,89.852-151.184
		c-0.004-0.012-0.004-0.02-0.008-0.028c-11.812-45.884,4.812-89.784,17.256-102.752L363.152,157.056z"/>
	<path style="fill:#EBE6C7;" d="M220.336,106.916c2.872-0.98,6.024-2.74,9.08-3.14c-6.412-5.188-13.564-7.1-20.08-7.1
		c-2.052,0-4.052,0.212-5.996,0.584C208.6,98.252,216.328,103.676,220.336,106.916z"/>
</g>
<path style="fill:#FFE1D9;" d="M412.7,288.42c2.096-1.9,3.3-4.588,3.3-7.42c0-41.152-15.632-72.084-42.92-111.984
	c-1.076-1.428-4.648-6.084-9.916-11.96l-0.052-0.02c-12.444,12.968-29.08,56.88-17.256,102.752c0.004,0.008,0.004,0.016,0.008,0.028
	c0-0.012,0-0.02,0-0.028c17.148,16.928,39.444,29.148,59.132,31.148C407.796,291.272,410.584,290.316,412.7,288.42z"/>
<path style="fill:#F2D6CE;" d="M373.08,169.016c-1.076-1.428-4.648-6.084-9.916-11.96l-0.052-0.02
	c-1.788,1.872-3.672,4.444-5.548,7.516c1.752,2.148,2.964,3.74,3.516,4.464C388.368,208.916,404,239.848,404,281
	c0,2.832-1.204,5.528-3.3,7.42c-0.68,0.6-1.44,1.084-2.248,1.476c2.204,0.452,4.384,0.82,6.532,1.04
	c2.812,0.336,5.6-0.62,7.716-2.516c2.096-1.9,3.3-4.588,3.3-7.42C416,239.848,400.368,208.916,373.08,169.016z"/>
<path style="fill:#FFE1D9;" d="M148.888,157.036c-5.384,6.012-9.068,10.808-10.232,12.356C111.632,208.916,96,239.848,96,281
	c0,2.832,1.204,5.528,3.3,7.42c2.092,1.892,4.916,2.852,7.716,2.516c19.688-2,41.984-14.22,59.132-31.148
	C177.96,213.916,161.336,170.004,148.888,157.036z"/>
<path style="fill:#F2D6CE;" d="M148.888,157.036c-2.572,2.872-4.736,5.444-6.436,7.544c11.096,18.228,21.808,55.96,11.704,95.216
	c-15.276,15.084-34.64,26.408-52.604,30.108c1.688,0.86,3.584,1.26,5.472,1.04c19.688-2,41.984-14.22,59.132-31.148
	C177.96,213.916,161.336,170.004,148.888,157.036z"/>
<path style="fill:#FFE1D9;" d="M256,274.672c-38.584,0-71.348,24.844-83.224,59.408C182.044,377.68,204,411,256,411
	s73.952-33.32,83.228-76.92C327.348,299.516,294.584,274.672,256,274.672z"/>
<path style="fill:#F2D6CE;" d="M266.952,410.416c1.952-0.196,3.872-0.432,5.732-0.744c0.8-0.132,1.604-0.256,2.396-0.408
	c2.148-0.416,4.24-0.892,6.252-1.428c0.34-0.092,0.704-0.16,1.04-0.256c2.336-0.664,4.58-1.428,6.744-2.276
	c0.584-0.24,1.14-0.488,1.716-0.732c1.588-0.672,3.148-1.392,4.652-2.156c0.608-0.32,1.232-0.64,1.836-0.968
	c1.572-0.868,3.084-1.78,4.556-2.752c0.376-0.244,0.76-0.468,1.124-0.72c1.812-1.252,3.548-2.58,5.208-3.976
	c0.348-0.292,0.668-0.608,1.008-0.916c1.308-1.148,2.576-2.336,3.784-3.584c0.444-0.448,0.88-0.916,1.312-1.38
	c1.148-1.252,2.256-2.54,3.34-3.868c0.308-0.388,0.628-0.752,0.924-1.14c1.368-1.752,2.664-3.564,3.896-5.44
	c0.112-0.188,0.236-0.396,0.356-0.584c1.084-1.696,2.108-3.436,3.092-5.236c0.284-0.52,0.572-1.048,0.844-1.58
	c0.844-1.588,1.64-3.228,2.416-4.884c0.224-0.484,0.452-0.952,0.668-1.436c1.916-4.308,3.6-8.824,5.092-13.524
	c0.164-0.524,0.312-1.056,0.476-1.58c0.584-1.916,1.132-3.844,1.648-5.804c0.148-0.54,0.288-1.08,0.428-1.616
	c0.616-2.42,1.2-4.884,1.736-7.376c-2.252-6.536-5.248-12.72-8.88-18.444c-6.704,50.312-25.752,92.08-79.888,95.14
	c1.836,0.088,3.624,0.236,5.54,0.236c2.936,0,5.752-0.14,8.508-0.348C265.336,410.584,266.14,410.496,266.952,410.416z"/>
<g>
	<path style="fill:#70CCBD;" d="M226,251c-5.528,0-10-4.472-10-10v-30c0-5.528,4.472-10,10-10s10,4.472,10,10v30
		C236,246.528,231.528,251,226,251z"/>
	<path style="fill:#70CCBD;" d="M286,251c-5.528,0-10-4.472-10-10v-30c0-5.528,4.472-10,10-10s10,4.472,10,10v30
		C296,246.528,291.528,251,286,251z"/>
</g>
<path style="fill:#E6AFA0;" d="M256,371c-2.56,0-5.116-0.976-7.072-2.928l-30-30c-3.912-3.908-3.912-10.236,0-14.14
	c3.908-3.904,10.236-3.908,14.136,0l22.928,22.928l22.92-22.928c3.916-3.908,10.244-3.908,14.14,0c3.912,3.916,3.916,10.244,0,14.14
	l-30,30C261.116,370.024,258.564,371,256,371z"/>
<g>
</g>
<g>
</g>
<g>
</g>
<g>
</g>
<g>
</g>
<g>
</g>
<g>
</g>
<g>
</g>
<g>
</g>
<g>
</g>
<g>
</g>
<g>
</g>
<g>
</g>
<g>
</g>
<g>
</g>
</svg>
