<?xml version="1.0" encoding="iso-8859-1"?>
<!-- Generator: Adobe Illustrator 19.0.0, SVG Export Plug-In . SVG Version: 6.00 Build 0)  -->
<svg version="1.1" id="Layer_1" xmlns="http://www.w3.org/2000/svg" xmlns:xlink="http://www.w3.org/1999/xlink" x="0px" y="0px"
	 viewBox="0 0 512.004 512.004" style="enable-background:new 0 0 512.004 512.004;" xml:space="preserve">
<circle style="fill:#88C5CC;" cx="256.002" cy="256" r="256"/>
<path style="fill:#80B9BF;" d="M491.094,357.384c-0.112-0.252-0.188-0.54-0.32-0.788c-0.188-0.724-0.48-1.4-0.828-2.056
	c-0.188-0.72-0.48-1.392-0.828-2.044c-0.188-0.724-0.48-1.404-0.824-2.06c-0.192-0.72-0.484-1.4-0.828-2.048
	c-0.192-0.72-0.484-1.4-0.828-2.052c-0.192-0.724-0.484-1.404-0.828-2.06c-0.192-0.72-0.484-1.4-0.828-2.048
	c-0.188-0.72-0.48-1.392-0.824-2.04c-0.188-0.724-0.48-1.408-0.828-2.06c-0.188-0.732-0.484-1.412-0.828-2.06
	c-0.188-0.72-0.484-1.4-0.828-2.048c-0.188-0.724-0.484-1.4-0.828-2.056c-0.188-0.728-0.484-1.4-0.828-2.048
	c-0.188-0.728-0.48-1.404-0.828-2.056c-0.188-0.724-0.48-1.4-0.824-2.056c-0.192-0.72-0.48-1.392-0.828-2.048
	c-0.192-0.728-0.48-1.408-0.828-2.056c-0.188-0.72-0.48-1.4-0.824-2.048c-0.192-0.728-0.484-1.4-0.828-2.056
	c-0.192-0.728-0.484-1.4-0.828-2.048c-0.192-0.728-0.484-1.408-0.828-2.06c-0.192-0.716-0.484-1.396-0.828-2.044
	c-0.188-0.72-0.484-1.4-0.82-2.04c-0.188-0.736-0.484-1.416-0.836-2.076c-0.188-0.716-0.484-1.396-0.828-2.044
	c-0.188-0.728-0.484-1.408-0.828-2.064c-0.188-0.72-0.484-1.392-0.828-2.044c-0.188-0.724-0.484-1.404-0.828-2.056
	c-0.188-0.716-0.484-1.396-0.828-2.044c-0.188-0.732-0.484-1.408-0.828-2.064c-0.188-0.72-0.476-1.392-0.828-2.044
	c-0.188-0.724-0.476-1.404-0.82-2.06c-0.196-0.72-0.484-1.4-0.828-2.048c-0.196-0.72-0.484-1.4-0.828-2.052
	c-0.188-0.724-0.484-1.404-0.828-2.056c-0.188-0.716-0.484-1.404-0.828-2.044c-0.188-0.732-0.484-1.408-0.828-2.064
	c-0.188-0.712-0.48-1.384-0.82-2.032c-0.192-0.736-0.484-1.416-0.832-2.072c-0.188-0.72-0.484-1.4-0.828-2.048
	c-0.188-0.724-0.484-1.4-0.828-2.056c-0.188-0.72-0.484-1.392-0.828-2.048c-0.188-0.728-0.484-1.404-0.828-2.056
	c-0.188-0.724-0.484-1.4-0.828-2.056c-0.188-0.72-0.484-1.392-0.828-2.048c-0.188-0.728-0.48-1.408-0.828-2.056
	c-0.188-0.72-0.48-1.4-0.828-2.048c-0.188-0.728-0.48-1.4-0.824-2.056c-0.192-0.724-0.484-1.396-0.828-2.048
	c-0.192-0.724-0.484-1.404-0.828-2.056c-0.192-0.716-0.484-1.396-0.828-2.044c-0.188-0.724-0.484-1.404-0.828-2.052
	c-0.188-0.72-0.476-1.396-0.82-2.044c-0.188-0.724-0.484-1.404-0.828-2.06c-0.188-0.724-0.484-1.4-0.828-2.056
	c-0.188-0.724-0.484-1.396-0.828-2.048c-0.188-0.724-0.484-1.404-0.828-2.056c-0.188-0.716-0.484-1.396-0.828-2.044
	c-0.188-0.728-0.484-1.404-0.828-2.06c-0.188-0.72-0.484-1.392-0.828-2.044c-0.188-0.724-0.484-1.4-0.828-2.052
	c-0.188-0.728-0.484-1.4-0.828-2.056c-0.188-0.724-0.484-1.396-0.828-2.048c-0.188-0.724-0.48-1.404-0.828-2.056
	c-0.188-0.716-0.48-1.4-0.824-2.044c-0.192-0.728-0.484-1.404-0.828-2.06c-0.192-0.72-0.484-1.392-0.828-2.044
	c-0.188-0.724-0.484-1.404-0.828-2.056c-0.188-0.716-0.48-1.388-0.82-2.036c-0.188-0.724-0.484-1.408-0.832-2.064
	c-0.188-0.724-0.484-1.404-0.828-2.056c-0.188-0.72-0.484-1.4-0.828-2.048c-0.188-0.724-0.484-1.4-0.828-2.056
	c-0.188-0.72-0.484-1.392-0.828-2.044c-0.188-0.728-0.484-1.408-0.828-2.06c-0.188-0.716-0.484-1.396-0.828-2.044
	c-0.188-0.724-0.484-1.4-0.828-2.056c-0.188-0.724-0.484-1.396-0.828-2.044c-0.188-0.728-0.484-1.408-0.828-2.06
	c-0.188-0.716-0.484-1.396-0.828-2.044c-0.188-0.72-0.476-1.4-0.828-2.052c-0.188-0.728-0.476-1.408-0.82-2.06
	c-0.196-0.716-0.484-1.396-0.828-2.044c-0.196-0.72-0.484-1.392-0.828-2.04c-0.188-0.728-0.476-1.412-0.828-2.064
	c-0.188-0.724-0.484-1.404-0.828-2.056c-0.188-0.716-0.484-1.396-0.828-2.044c-0.188-0.728-0.484-1.404-0.828-2.06
	c-0.188-0.72-0.48-1.392-0.828-2.044c-0.188-0.724-0.48-1.4-0.828-2.052c-0.188-0.724-0.48-1.404-0.824-2.06
	c-0.192-0.72-0.484-1.392-0.828-2.044c-0.192-0.724-0.484-1.404-0.828-2.056c-0.192-0.716-0.484-1.396-0.828-2.044
	c-0.192-0.728-0.484-1.404-0.828-2.06c-0.188-0.72-0.484-1.392-0.828-2.044c-0.188-0.724-0.48-1.404-0.828-2.056
	c-0.188-0.72-0.48-1.4-0.824-2.048c-0.192-0.716-0.48-1.392-0.82-2.04c-0.192-0.728-0.484-1.408-0.832-2.068
	c-0.188-0.716-0.484-1.4-0.828-2.044c-0.188-0.728-0.484-1.404-0.828-2.06c-0.188-0.72-0.484-1.392-0.828-2.044
	c-0.188-0.728-0.48-1.408-0.828-2.056c-0.188-0.72-0.48-1.4-0.828-2.048c-0.188-0.724-0.48-1.4-0.824-2.056
	c-0.192-0.72-0.484-1.392-0.828-2.044c-0.192-0.728-0.484-1.404-0.828-2.056c-0.192-0.724-0.484-1.4-0.828-2.056
	c-0.192-0.72-0.484-1.392-0.828-2.044c-0.188-0.728-0.484-1.408-0.828-2.06c-0.188-0.716-0.484-1.396-0.828-2.044
	c-0.188-0.724-0.484-1.4-0.828-2.056c-0.188-0.712-0.476-1.384-0.82-2.032c-0.188-0.732-0.484-1.412-0.828-2.072
	c-0.196-0.716-0.484-1.396-0.828-2.044c-0.196-0.724-0.484-1.404-0.828-2.06c-0.188-0.72-0.484-1.392-0.828-2.044
	c-0.188-0.724-0.484-1.4-0.828-2.052c-0.188-0.724-0.484-1.4-0.828-2.056c-0.644-2.464-2.252-4.616-4.508-5.936
	c-2.992-1.752-6.688-1.752-9.68-0.032L313.39,140.92c-1.864-0.656-3.792-1.264-5.752-1.852c-8.96-2.696-18.416-4.452-27.752-5.508
	c-0.296-0.04-0.584-0.08-0.9-0.108c-2.016-0.22-4.008-0.4-6-0.556c-0.6-0.048-1.204-0.104-1.808-0.148
	c-1.864-0.128-3.692-0.228-5.512-0.3c-0.72-0.032-1.428-0.08-2.148-0.096c-2.54-0.084-5.032-0.136-7.456-0.136
	c-21.176,0-41.316,3.08-57.328,8.712l-63.932-36.468c-3-1.716-6.684-1.716-9.676,0.032s-4.832,4.928-4.832,8.388v75.132
	c-9.696,18.736-8.248,53.856-8.248,76.26c-7.18,17.94-1.48,48.708,2.66,57.736c0.276,0.764,0.556,1.444,0.82,2.036
	c0.28,0.772,0.556,1.456,0.828,2.06c0.284,0.768,0.564,1.46,0.836,2.064c0.276,0.764,0.552,1.444,0.82,2.036
	c0.284,0.776,0.56,1.464,0.836,2.068c0.268,0.752,0.54,1.416,0.8,2c0.288,0.788,0.572,1.492,0.852,2.092
	c0.276,0.764,0.552,1.444,0.82,2.04c0.28,0.772,0.564,1.46,0.836,2.072c0.276,0.756,0.552,1.436,0.82,2.032
	c0.28,0.772,0.564,1.468,0.836,2.064c0.276,0.764,0.552,1.444,0.82,2.04c0.276,0.768,0.556,1.452,0.828,2.056
	c0.276,0.772,0.564,1.468,0.836,2.064c0.272,0.764,0.552,1.444,0.82,2.04c0.276,0.772,0.564,1.46,0.836,2.072
	c0.272,0.756,0.552,1.436,0.82,2.032c0.276,0.776,0.564,1.468,0.836,2.072c0.272,0.756,0.552,1.436,0.82,2.036
	c0.276,0.768,0.564,1.464,0.836,2.068c0.264,0.752,0.54,1.416,0.796,1.996c0.288,0.784,0.572,1.48,0.844,2.084
	c0.284,0.772,0.564,1.46,0.836,2.072c0.276,0.756,0.556,1.436,0.82,2.032c0.284,0.776,0.564,1.468,0.836,2.072
	c0.276,0.756,0.556,1.436,0.82,2.036c0.284,0.768,0.564,1.464,0.836,2.068c0.276,0.76,0.556,1.44,0.82,2.04
	c0.284,0.768,0.564,1.46,0.836,2.064c0.276,0.764,0.556,1.444,0.82,2.036c0.28,0.768,0.56,1.456,0.828,2.052
	c0.284,0.776,0.56,1.468,0.836,2.072c0.276,0.756,0.552,1.436,0.82,2.036c0.284,0.776,0.56,1.464,0.836,2.068
	c0.276,0.76,0.552,1.44,0.82,2.04c0.276,0.752,0.548,1.428,0.816,2.028c0.284,0.776,0.564,1.472,0.836,2.072
	c0.28,0.776,0.564,1.464,0.836,2.068c0.272,0.76,0.552,1.444,0.82,2.04c0.28,0.764,0.556,1.452,0.828,2.052
	c0.276,0.776,0.564,1.464,0.836,2.068c0.272,0.76,0.552,1.44,0.82,2.04c0.276,0.772,0.564,1.46,0.836,2.064
	c0.272,0.764,0.552,1.444,0.82,2.04c0.276,0.772,0.564,1.46,0.836,2.072c0.272,0.756,0.552,1.436,0.82,2.032
	c0.276,0.772,0.564,1.468,0.836,2.064c0.272,0.764,0.552,1.444,0.82,2.04c0.276,0.772,0.564,1.46,0.836,2.072
	c0.272,0.756,0.552,1.436,0.816,2.032c0.272,0.752,0.548,1.428,0.808,2.016c0.288,0.792,0.576,1.492,0.852,2.1
	c0.276,0.756,0.556,1.436,0.82,2.032c0.284,0.776,0.564,1.468,0.836,2.064c0.276,0.764,0.556,1.444,0.82,2.044
	c0.284,0.768,0.564,1.456,0.836,2.068c0.276,0.76,0.556,1.44,0.82,2.032c0.284,0.776,0.564,1.468,0.836,2.072
	c0.276,0.756,0.556,1.436,0.82,2.036c0.28,0.768,0.556,1.456,0.828,2.052c0.284,0.776,0.564,1.468,0.836,2.072
	c0.276,0.756,0.552,1.436,0.82,2.036c0.284,0.768,0.56,1.464,0.836,2.068c0.276,0.76,0.552,1.44,0.82,2.04
	c0.284,0.768,0.56,1.46,0.836,2.064c0.276,0.764,0.552,1.444,0.82,2.036c0.276,0.76,0.548,1.436,0.816,2.028
	c0.284,0.78,0.564,1.472,0.836,2.08c0.276,0.764,0.556,1.452,0.828,2.052c0.276,0.772,0.564,1.464,0.836,2.068
	c0.272,0.76,0.552,1.44,0.82,2.04c0.276,0.772,0.564,1.46,0.836,2.064c0.272,0.764,0.552,1.444,0.82,2.04
	c0.276,0.772,0.564,1.46,0.836,2.068c0.272,0.76,0.552,1.44,0.82,2.036c0.276,0.772,0.564,1.464,0.836,2.064
	c0.272,0.764,0.552,1.444,0.816,2.04c0.28,0.768,0.56,1.452,0.828,2.056c0.28,0.772,0.568,1.46,0.836,2.064
	c0.276,0.764,0.556,1.444,0.82,2.04c0.28,0.772,0.568,1.46,0.836,2.072c0.268,0.752,0.544,1.416,0.8,1.996
	c0.288,0.784,0.576,1.492,0.852,2.088c0.276,0.764,0.556,1.444,0.82,2.04c0.284,0.772,0.564,1.46,0.836,2.072
	c0.276,0.756,0.556,1.44,0.82,2.032c0.28,0.772,0.56,1.456,0.828,2.056c0.284,0.772,0.56,1.46,0.836,2.072
	c0.008,0.024,0.016,0.04,0.028,0.072c21.8,6.032,44.744,9.328,68.46,9.328C361.362,512,451.822,448.328,491.094,357.384z"/>
<path style="fill:#808080;" d="M112.002,264.548c0-22.408-1.452-57.532,8.244-76.252v-75.14c0-3.456,1.844-6.644,4.832-8.388
	c2.992-1.752,6.676-1.752,9.676-0.036l63.92,36.524c16.012-5.628,36.152-8.712,57.328-8.712c21.172,0,41.316,3.084,57.328,8.712
	l63.916-36.524c2.992-1.716,6.688-1.716,9.68,0.036c2.992,1.744,4.828,4.924,4.828,8.388v75.132
	c9.7,18.732,8.248,53.856,8.248,76.26H112.002z"/>
<g>
	<path style="fill:#737373;" d="M309.086,143.672l4.228-2.416c-18.252-6.528-39.42-8.716-57.312-8.716c-2.016,0-4.008,0.06-6,0.108
		C268.954,133.18,294.594,138.58,309.086,143.672z"/>
	<path style="fill:#737373;" d="M190.562,143.672c2.484-0.876,5.1-1.664,7.772-2.416l-63.584-36.528
		c-3-1.716-6.688-1.716-9.68,0.036c-0.36,0.208-0.636,0.5-0.96,0.748L190.562,143.672z"/>
	<path style="fill:#737373;" d="M391.758,188.284v-75.132c0-3.456-1.844-6.644-4.836-8.388c-2.992-1.752-6.688-1.752-9.672-0.036
		l-1.368,0.776c2.392,1.824,3.876,4.596,3.876,7.64v75.136c9.696,18.732,8.244,53.856,8.244,76.26h12
		C400.002,242.14,401.454,207.016,391.758,188.284z"/>
</g>
<path style="fill:#F5F5F5;" d="M291.666,343.744c0,10.592-15.908,23.392-35.664,23.392s-35.664-12.788-35.664-23.392v-17.252h71.328
	V343.744z"/>
<path style="fill:#E6E6E6;" d="M400.002,264.548c-20-16-92-40.416-144-40.416s-124,24.42-144,40.416c-8,20,0,56,4,60c8-4,24-8,36-8
	c-8,8-12,36-12,48c16-8,32-4,40,4c12,36,64,40,76,40s64-4,76-40c8-8,20-12,40-4c0-12-4-40-12-48c12,0,28,4,36,8
	C400.002,320.548,408.002,284.548,400.002,264.548z"/>
<g>
	<path style="fill:#CCCCCC;" d="M341.962,314.28c7.172,7.172,12.58,32.648,13.32,46.028c4.86,0.384,10.384,1.704,16.72,4.24
		c0-11.064-2.996-35.328-11.664-48C354.158,315.188,347.618,314.28,341.962,314.28z"/>
	<path style="fill:#CCCCCC;" d="M315.422,368.548c-10.116,30.36-48.68,37.956-67.72,39.596c3.544,0.3,6.412,0.404,8.288,0.404
		c12,0,64-4,76-40c3.372-3.372,7.46-6.016,12.564-7.368C330.886,358.28,321.854,362.116,315.422,368.548z"/>
	<path style="fill:#CCCCCC;" d="M400.002,264.548c-4.64-3.716-12.108-7.884-21.46-12.084c2.204,4.58,3.752,8.584,4.86,12.076
		c0.008,0.008,0.024,0.012,0.032,0.02c1.572,3.928,2.508,8.484,3,13.28c0.008,0.072,0.016,0.136,0.032,0.2h-0.008
		c1.508,15.252-1.644,32.984-4.632,41.608c5.584,1.416,10.672,3.152,14.188,4.912C400.002,320.548,408.002,284.548,400.002,264.548z
		"/>
</g>
<circle style="fill:#F5F5F5;" cx="204.002" cy="235.704" r="20"/>
<circle style="fill:#242424;" cx="204.002" cy="235.704" r="8"/>
<circle style="fill:#F5F5F5;" cx="308.002" cy="235.704" r="20"/>
<circle style="fill:#242424;" cx="308.002" cy="235.704" r="8"/>
<path style="fill:#F5F5F5;" d="M256.002,380.548c-28,0-40-41.512-40-55.468c0-13.948,17.84-15.328,40-15.328
	c22.156,0,40,1.38,40,15.328C296.002,339.036,284.002,380.548,256.002,380.548z"/>
<path style="fill:#737373;" d="M296.002,326.484v-100c0-12.688-17.844-28-40-28c-22.16,0-40,15.312-40,28v100H296.002z"/>
<g>
	<polygon style="fill:#B3B3B3;" points="139.638,190.728 139.638,132.548 197.822,161.636 	"/>
	<polygon style="fill:#B3B3B3;" points="372.366,190.728 372.366,132.548 314.182,161.636 	"/>
</g>
<path style="fill:#242424;" d="M256.002,368.548c-22.16,0-40-29.376-40-42.064s17.84-13.936,40-13.936c22.156,0,40,1.252,40,13.936
	S278.158,368.548,256.002,368.548z"/>
<g>
	<path style="fill:#737373;" d="M256.002,224.12h-78.168c10.836-9.336,49.836-25.636,78.168-25.636V224.12z"/>
	<path style="fill:#737373;" d="M256.002,224.12h78.168c-10.836-9.336-49.836-25.636-78.168-25.636V224.12z"/>
</g>
<g>
</g>
<g>
</g>
<g>
</g>
<g>
</g>
<g>
</g>
<g>
</g>
<g>
</g>
<g>
</g>
<g>
</g>
<g>
</g>
<g>
</g>
<g>
</g>
<g>
</g>
<g>
</g>
<g>
</g>
</svg>
